<?xml version="1.0" encoding="UTF-8" standalone="no"?>
<svg
   xmlns:dc="http://purl.org/dc/elements/1.1/"
   xmlns:cc="http://creativecommons.org/ns#"
   xmlns:rdf="http://www.w3.org/1999/02/22-rdf-syntax-ns#"
   xmlns:svg="http://www.w3.org/2000/svg"
   xmlns="http://www.w3.org/2000/svg"
   xmlns:sodipodi="http://sodipodi.sourceforge.net/DTD/sodipodi-0.dtd"
   xmlns:inkscape="http://www.inkscape.org/namespaces/inkscape"
   sodipodi:docname="symmetryButton4.svg"
   inkscape:version="1.0beta1 (32d4812, 2019-09-19)"
   id="svg923"
   version="1.1"
   viewBox="0 0 26.458331 26.458334"
   height="100%"
   width="100%">
  <defs
     id="defs917">
    <inkscape:path-effect
       split_items="false"
       mirror_copies="false"
       copies_to_360="false"
       Gap space between copies, use small negative gaps to fix some joins="0.03"
       rotation_angle="27.39"
       starting_angle="0"
       num_copies="24"
       method="kaleidoskope"
       is_visible="true"
       id="path-effect3120"
       origin="17.58,-11.39"
       starting_point="0,0"
       effect="copy_rotate" />
    <inkscape:path-effect
       crossing_points_vector=""
       add_other_stroke_width="inkscape_1.0_and_up"
       inverse_width="false"
       both="false"
       add_stroke_width="inkscape_1.0_and_up"
       prop_to_stroke_width="true"
       interruption_width="3"
       switcher_size="15"
       is_visible="true"
       id="path-effect3118"
       effect="knot" />
    <inkscape:path-effect
       background_color="#ffffffff"
       background="false"
       hide_mask="false"
       invert="false"
       uri="false"
       is_visible="true"
       id="path-effect3050"
       effect="powermask" />
    <marker
       inkscape:isstock="true"
       style="overflow:visible"
       id="DotS"
       refX="0.0"
       refY="0.0"
       orient="auto"
       inkscape:stockid="DotS">
      <path
         transform="scale(0.2) translate(7.4, 1)"
         style="fill-rule:evenodd;stroke:#000000;stroke-width:1pt;stroke-opacity:1;fill:#000000;fill-opacity:1"
         d="M -2.5,-1.0 C -2.5,1.7600000 -4.7400000,4.0 -7.5,4.0 C -10.260000,4.0 -12.5,1.7600000 -12.5,-1.0 C -12.5,-3.7600000 -10.260000,-6.0 -7.5,-6.0 C -4.7400000,-6.0 -2.5,-3.7600000 -2.5,-1.0 z "
         id="path1691" />
    </marker>
    <marker
       inkscape:isstock="true"
       style="overflow:visible"
       id="DotM"
       refX="0.0"
       refY="0.0"
       orient="auto"
       inkscape:stockid="DotM">
      <path
         transform="scale(0.4) translate(7.4, 1)"
         style="fill-rule:evenodd;stroke:#000000;stroke-width:1pt;stroke-opacity:1;fill:#000000;fill-opacity:1"
         d="M -2.5,-1.0 C -2.5,1.7600000 -4.7400000,4.0 -7.5,4.0 C -10.260000,4.0 -12.5,1.7600000 -12.5,-1.0 C -12.5,-3.7600000 -10.260000,-6.0 -7.5,-6.0 C -4.7400000,-6.0 -2.5,-3.7600000 -2.5,-1.0 z "
         id="path1688" />
    </marker>
    <marker
       inkscape:stockid="DotS"
       orient="auto"
       refY="0"
       refX="0"
       id="DotS-1"
       style="overflow:visible"
       inkscape:isstock="true">
      <path
         inkscape:connector-curvature="0"
         id="path1691-9"
         d="m -2.5,-1 c 0,2.76 -2.24,5 -5,5 -2.76,0 -5,-2.24 -5,-5 0,-2.76 2.24,-5 5,-5 2.76,0 5,2.24 5,5 z"
         style="fill:#000000;fill-opacity:1;fill-rule:evenodd;stroke:#000000;stroke-width:1pt;stroke-opacity:1"
         transform="matrix(0.2,0,0,0.2,1.48,0.2)" />
    </marker>
    <marker
       inkscape:stockid="DotS"
       orient="auto"
       refY="0"
       refX="0"
       id="marker2346"
       style="overflow:visible"
       inkscape:isstock="true">
      <path
         inkscape:connector-curvature="0"
         id="path2344"
         d="m -2.5,-1 c 0,2.76 -2.24,5 -5,5 -2.76,0 -5,-2.24 -5,-5 0,-2.76 2.24,-5 5,-5 2.76,0 5,2.24 5,5 z"
         style="fill:#000000;fill-opacity:1;fill-rule:evenodd;stroke:#000000;stroke-width:1pt;stroke-opacity:1"
         transform="matrix(0.2,0,0,0.2,1.48,0.2)" />
    </marker>
    <marker
       inkscape:stockid="DotS"
       orient="auto"
       refY="0"
       refX="0"
       id="DotS-15"
       style="overflow:visible"
       inkscape:isstock="true">
      <path
         inkscape:connector-curvature="0"
         id="path1691-5"
         d="m -2.5,-1 c 0,2.76 -2.24,5 -5,5 -2.76,0 -5,-2.24 -5,-5 0,-2.76 2.24,-5 5,-5 2.76,0 5,2.24 5,5 z"
         style="fill:#000000;fill-opacity:1;fill-rule:evenodd;stroke:#000000;stroke-width:1pt;stroke-opacity:1"
         transform="matrix(0.2,0,0,0.2,1.48,0.2)" />
    </marker>
    <marker
       inkscape:stockid="DotS"
       orient="auto"
       refY="0"
       refX="0"
       id="marker2346-8"
       style="overflow:visible"
       inkscape:isstock="true">
      <path
         inkscape:connector-curvature="0"
         id="path2344-5"
         d="m -2.5,-1 c 0,2.76 -2.24,5 -5,5 -2.76,0 -5,-2.24 -5,-5 0,-2.76 2.24,-5 5,-5 2.76,0 5,2.24 5,5 z"
         style="fill:#000000;fill-opacity:1;fill-rule:evenodd;stroke:#000000;stroke-width:1pt;stroke-opacity:1"
         transform="matrix(0.2,0,0,0.2,1.48,0.2)" />
    </marker>
    <marker
       inkscape:isstock="true"
       style="overflow:visible"
       id="DotS-15-7"
       refX="0"
       refY="0"
       orient="auto"
       inkscape:stockid="DotS">
      <path
         transform="matrix(0.2,0,0,0.2,1.48,0.2)"
         style="fill:#000000;fill-opacity:1;fill-rule:evenodd;stroke:#000000;stroke-width:1pt;stroke-opacity:1"
         d="m -2.5,-1 c 0,2.76 -2.24,5 -5,5 -2.76,0 -5,-2.24 -5,-5 0,-2.76 2.24,-5 5,-5 2.76,0 5,2.24 5,5 z"
         id="path1691-5-1"
         inkscape:connector-curvature="0" />
    </marker>
    <marker
       inkscape:isstock="true"
       style="overflow:visible"
       id="marker4795"
       refX="0"
       refY="0"
       orient="auto"
       inkscape:stockid="DotS">
      <path
         transform="matrix(0.2,0,0,0.2,1.48,0.2)"
         style="fill:#000000;fill-opacity:1;fill-rule:evenodd;stroke:#000000;stroke-width:1pt;stroke-opacity:1"
         d="m -2.5,-1 c 0,2.76 -2.24,5 -5,5 -2.76,0 -5,-2.24 -5,-5 0,-2.76 2.24,-5 5,-5 2.76,0 5,2.24 5,5 z"
         id="path4793"
         inkscape:connector-curvature="0" />
    </marker>
    <marker
       inkscape:isstock="true"
       style="overflow:visible"
       id="DotS-6"
       refX="0"
       refY="0"
       orient="auto"
       inkscape:stockid="DotS">
      <path
         transform="matrix(0.2,0,0,0.2,1.48,0.2)"
         style="fill:#000000;fill-opacity:1;fill-rule:evenodd;stroke:#000000;stroke-width:1pt;stroke-opacity:1"
         d="m -2.5,-1 c 0,2.76 -2.24,5 -5,5 -2.76,0 -5,-2.24 -5,-5 0,-2.76 2.24,-5 5,-5 2.76,0 5,2.24 5,5 z"
         id="path1691-4"
         inkscape:connector-curvature="0" />
    </marker>
    <marker
       inkscape:isstock="true"
       style="overflow:visible"
       id="marker10932"
       refX="0"
       refY="0"
       orient="auto"
       inkscape:stockid="DotS">
      <path
         transform="matrix(0.2,0,0,0.2,1.48,0.2)"
         style="fill:#000000;fill-opacity:1;fill-rule:evenodd;stroke:#000000;stroke-width:1pt;stroke-opacity:1"
         d="m -2.5,-1 c 0,2.76 -2.24,5 -5,5 -2.76,0 -5,-2.24 -5,-5 0,-2.76 2.24,-5 5,-5 2.76,0 5,2.24 5,5 z"
         id="path10930"
         inkscape:connector-curvature="0" />
    </marker>
    <marker
       inkscape:isstock="true"
       style="overflow:visible"
       id="marker10936"
       refX="0"
       refY="0"
       orient="auto"
       inkscape:stockid="DotS">
      <path
         transform="matrix(0.2,0,0,0.2,1.48,0.2)"
         style="fill:#000000;fill-opacity:1;fill-rule:evenodd;stroke:#000000;stroke-width:1pt;stroke-opacity:1"
         d="m -2.5,-1 c 0,2.76 -2.24,5 -5,5 -2.76,0 -5,-2.24 -5,-5 0,-2.76 2.24,-5 5,-5 2.76,0 5,2.24 5,5 z"
         id="path10934"
         inkscape:connector-curvature="0" />
    </marker>
    <inkscape:path-effect
       rotation_angle="72"
       starting_angle="0"
       num_copies="5"
       method="normal"
       is_visible="true"
       id="path-effect9709"
       origin="0,0"
       starting_point="0,0"
       effect="copy_rotate" />
  </defs>
  <sodipodi:namedview
     showguides="false"
     inkscape:window-maximized="0"
     inkscape:window-y="23"
     inkscape:window-x="0"
     inkscape:window-height="952"
     inkscape:window-width="1635"
     inkscape:pagecheckerboard="true"
     fit-margin-bottom="0"
     fit-margin-right="0"
     fit-margin-left="0"
     fit-margin-top="0"
     units="px"
     showgrid="false"
     inkscape:document-rotation="0"
     inkscape:current-layer="layer1"
     inkscape:document-units="mm"
     inkscape:cy="13.229167"
     inkscape:cx="13.229165"
     inkscape:zoom="29.705887"
     inkscape:pageshadow="2"
     inkscape:pageopacity="0.0"
     borderopacity="1.0"
     bordercolor="#666666"
     pagecolor="#ffffff"
     id="base"
     inkscape:snap-grids="true" />
  <metadata
     id="metadata920">
    <rdf:RDF>
      <cc:Work
         rdf:about="">
        <dc:format>image/svg+xml</dc:format>
        <dc:type
           rdf:resource="http://purl.org/dc/dcmitype/StillImage" />
        <dc:title />
      </cc:Work>
    </rdf:RDF>
  </metadata>
  <g
     transform="translate(-3.6350382,-3.4126204)"
     id="layer1"
     inkscape:groupmode="layer"
     inkscape:label="Layer 1">
    <rect
       y="3.5192404"
       x="3.7416582"
       height="26.245094"
       width="26.24509"
       id="rect925"
       style="fill:#ffffff;fill-opacity:1;stroke:#ffffff;stroke-width:0.214308;stroke-linecap:round;stroke-linejoin:bevel;stroke-miterlimit:4;stroke-dasharray:none;stroke-opacity:1" />
    <path
       inkscape:connector-curvature="0"
       d="m 25.680358,17.85727 c -1.946092,-0.34086 -3.892183,-0.68172 -5.838275,-1.022579 0.119178,-0.299929 -0.09005,-0.963379 0.334375,-0.92543 1.936945,-0.210406 3.87389,-0.420813 5.810835,-0.631219 -0.102311,0.859742 -0.204623,1.719486 -0.306935,2.579228 z m -0.01045,-2.554719 c -1.944092,0.211182 -3.888185,0.422366 -5.832276,0.633549 0.04196,-0.325708 -0.317527,-0.914088 0.09773,-0.995622 1.802953,-0.746081 3.605906,-1.492161 5.408859,-2.238242 0.108564,0.866772 0.217128,1.733543 0.325692,2.600316 z m -0.623511,-2.487784 c -1.809607,0.748834 -3.619214,1.497668 -5.42882,2.246502 -0.03801,-0.329271 -0.523364,-0.802504 -0.145585,-0.997967 1.546093,-1.23091 3.092187,-2.461822 4.638281,-3.692733 0.312041,0.814732 0.624083,1.629466 0.936124,2.444198 z M 23.85231,10.563458 c -1.551799,1.235452 -3.103599,2.470905 -4.655397,3.706358 -0.115445,-0.310405 -0.693532,-0.636231 -0.378972,-0.932302 1.18387,-1.631855 2.367741,-3.263712 3.551611,-4.8955669 0.494253,0.7071698 0.988505,1.4143408 1.482758,2.1215109 z M 22.169028,8.7020455 c -1.188239,1.6378775 -2.376477,3.2757545 -3.564717,4.9136315 -0.185014,-0.270384 -0.816438,-0.426598 -0.586534,-0.803098 0.740969,-1.921593 1.481936,-3.8431868 2.222904,-5.7647799 0.642782,0.551415 1.285565,1.1028314 1.928347,1.6542464 z m -2.05777,-1.3446637 c -0.743702,1.9286833 -1.487404,3.8573682 -2.231106,5.7860512 -0.241976,-0.211938 -0.883706,-0.187891 -0.754125,-0.619168 0.24757,-2.080377 0.49514,-4.1607536 0.74271,-6.2411305 0.747508,0.3580829 1.495014,0.7161644 2.242521,1.0742473 z M 17.819237,6.6211037 c -0.248484,2.0880542 -0.496968,4.1761073 -0.745451,6.2641613 -0.282446,-0.139046 -0.890751,0.06361 -0.870323,-0.393042 -0.2627,-2.097387 -0.525399,-4.1947733 -0.788098,-6.2921598 0.80129,0.1403468 1.602582,0.2806937 2.403872,0.4210405 z m -2.370076,-0.077715 c 0.263669,2.1051253 0.527338,4.2102513 0.791007,6.3153773 -0.303661,-0.05675 -0.837092,0.310786 -0.927209,-0.140138 -0.755066,-1.971462 -1.510133,-3.9429238 -2.265199,-5.9143857 0.800468,-0.086954 1.600934,-0.1739062 2.401402,-0.2608598 z m -2.286613,0.5861416 c 0.757853,1.978737 1.515705,3.9574747 2.273558,5.9362117 -0.304195,0.02954 -0.726386,0.536781 -0.920909,0.122331 C 13.31922,11.476887 12.123243,9.7657 10.927266,8.0545133 11.672359,7.746186 12.417454,7.4378576 13.162548,7.1295303 Z m -2.047322,1.2100566 c 1.20039,1.7175001 2.40078,3.4350021 3.60117,5.1525031 -0.283993,0.113758 -0.56618,0.726192 -0.851851,0.376454 C 12.309163,12.534248 10.753779,11.199951 9.1983959,9.865655 9.8373389,9.3569655 10.476283,8.8482762 11.115226,8.3395869 Z M 9.4467176,10.091093 c 1.5611224,1.33922 3.1222454,2.678439 4.6833674,4.017659 -0.244436,0.190221 -0.367387,0.866117 -0.724738,0.604924 C 11.596554,13.8472 9.7877607,12.980725 7.9789677,12.11425 8.4682171,11.439864 8.957468,10.765478 9.4467176,10.091093 Z m -1.1759903,2.173594 c 1.8154677,0.869673 3.6309357,1.739346 5.4464027,2.609019 -0.188222,0.25372 -0.143555,0.947016 -0.548237,0.792169 C 11.229956,15.326269 9.2910198,14.986662 7.3520831,14.647056 7.6582979,13.852932 7.9645125,13.05881 8.2707273,12.264687 Z M 7.667398,14.712242 c 1.9460918,0.340859 3.892183,0.681719 5.838275,1.022579 -0.119178,0.299929 0.09005,0.963379 -0.334375,0.925429 -1.936945,0.210407 -3.87389,0.420813 -5.8108347,0.631219 0.1023116,-0.859743 0.2046231,-1.719485 0.3069347,-2.579227 z m 0.010448,2.554719 c 1.9440918,-0.211184 3.888185,-0.422367 5.832277,-0.63355 -0.04196,0.325708 0.317526,0.914089 -0.09772,0.995625 C 11.60945,18.375117 9.8064976,19.121197 8.0035447,19.867278 7.8949792,19.000506 7.786416,18.133734 7.6778517,17.266962 Z m 0.6235117,2.487783 c 1.8096063,-0.748834 3.6192133,-1.497667 5.4288203,-2.246501 0.03801,0.32927 0.523363,0.802504 0.145584,0.997967 -1.546093,1.230911 -3.092187,2.461821 -4.6382809,3.692731 C 8.9254403,21.384209 8.6133984,20.569476 8.3013577,19.754744 Z m 1.1940865,2.25131 c 1.5517988,-1.235453 3.1035988,-2.470905 4.6553968,-3.706358 0.115445,0.310404 0.693532,0.63623 0.378972,0.9323 -1.18387,1.631856 -2.367741,3.263712 -3.551611,4.895568 -0.494253,-0.70717 -0.9885052,-1.41434 -1.4827578,-2.12151 z m 1.6832838,1.861413 c 1.18824,-1.637878 2.376478,-3.275756 3.564717,-4.913634 0.185014,0.270385 0.816439,0.426599 0.586534,0.8031 -0.740968,1.921593 -1.481936,3.843186 -2.222904,5.764779 -0.642782,-0.551415 -1.285565,-1.10283 -1.928347,-1.654245 z m 2.05777,1.344663 c 0.743702,-1.928684 1.487404,-3.857368 2.231106,-5.786052 0.241976,0.211938 0.883706,0.187895 0.754125,0.619169 -0.24757,2.080376 -0.49514,4.160753 -0.74271,6.24113 -0.747508,-0.358083 -1.495014,-0.716165 -2.242521,-1.074247 z m 2.292021,0.736278 c 0.248484,-2.088054 0.496968,-4.176108 0.745451,-6.264161 0.282445,0.139049 0.890751,-0.06361 0.870323,0.393042 0.2627,2.097386 0.525399,4.194773 0.788099,6.292159 -0.801291,-0.140347 -1.602582,-0.280694 -2.403873,-0.42104 z m 2.370076,0.07771 c -0.263669,-2.105126 -0.527338,-4.210252 -0.791007,-6.315378 0.303668,0.05669 0.837092,-0.310786 0.92721,0.140131 0.755066,1.971462 1.510133,3.942925 2.265199,5.914387 -0.800468,0.08695 -1.600934,0.173907 -2.401402,0.26086 z m 2.286614,-0.586142 c -0.757853,-1.978737 -1.515706,-3.957475 -2.273559,-5.936212 0.304196,-0.02954 0.726386,-0.53678 0.920909,-0.12233 1.195977,1.711186 2.391955,3.422373 3.587931,5.13356 -0.745093,0.308327 -1.490188,0.616655 -2.235281,0.924982 z M 22.23253,24.22992 c -1.20039,-1.717501 -2.40078,-3.435002 -3.60117,-5.152503 0.283993,-0.11376 0.56618,-0.726193 0.851851,-0.376455 1.555383,1.334297 3.110767,2.668593 4.666149,4.002889 -0.638943,0.50869 -1.277887,1.017379 -1.91683,1.526069 z m 1.668509,-1.751506 c -1.561123,-1.33922 -3.122245,-2.67844 -4.683368,-4.01766 0.244436,-0.190221 0.367387,-0.866117 0.724738,-0.604924 1.808793,0.866476 3.617586,1.732952 5.42638,2.599427 -0.48925,0.674386 -0.978501,1.348771 -1.46775,2.023157 z m 1.17599,-2.173594 c -1.815467,-0.869673 -3.630936,-1.739346 -5.446403,-2.609019 0.188222,-0.253721 0.143556,-0.947017 0.548237,-0.79217 1.938937,0.339607 3.877873,0.679213 5.81681,1.01882 -0.306215,0.794123 -0.612429,1.588245 -0.918644,2.382369 z"
       style="fill:none;fill-rule:evenodd;stroke:#000000;stroke-width:1.18437;stroke-miterlimit:4;stroke-dasharray:none;stroke-opacity:1"
       id="rect11987-9-0" />
  </g>
</svg>
