<?xml version="1.0" encoding="UTF-8" standalone="no"?> <!-- Created with Vectornator for iOS (http://vectornator.io/) --><!DOCTYPE svg PUBLIC "-//W3C//DTD SVG 1.1//EN" "http://www.w3.org/Graphics/SVG/1.1/DTD/svg11.dtd">
<svg style="fill-rule:evenodd;clip-rule:evenodd;stroke-linecap:round;stroke-linejoin:round;" xmlns:vectornator="http://vectornator.io" xmlns:xlink="http://www.w3.org/1999/xlink" xmlns="http://www.w3.org/2000/svg" xml:space="preserve" version="1.1" viewBox="0 0 26.4583 26.4583">
<metadata>
<vectornator:setting key="DynamicGuides" value="1"/>
<vectornator:setting key="CMYKEnabledKey" value="0"/>
<vectornator:setting key="Units" value="Points"/>
<vectornator:setting key="RulersVisible" value="1"/>
<vectornator:setting key="SnapToGuides" value="1"/>
<vectornator:setting key="GridSpacing" value="36"/>
</metadata>
<defs/>
<g id="layer1" vectornator:layerName="layer1">
<path stroke="#ffffff" stroke-width="0.21324" d="M0.10662+0.10662L26.3517+0.10662L26.3517+0.10662L26.3517+26.3517L26.3517+26.3517L0.10662+26.3517L0.10662+26.3517L0.10662+0.10662L0.10662+0.10662Z" fill="#ffffff" stroke-linecap="round" opacity="1" stroke-linejoin="bevel"/>
<path stroke="#000000" stroke-width="1.33663" d="M2.77487+23.2655L22.866+2.88915" fill="none" stroke-linecap="butt" opacity="1" stroke-linejoin="miter"/>
<path stroke="#000000" stroke-width="0.623622" d="M4.98141+23.5632L4.98141+9.00941L7.36867+9.00941L7.36867+6.09866L9.75594+6.09866L9.75594+3.18792L16.9177+3.18792L16.9177+6.09866L19.305+6.09866L19.305+9.00941L21.6923+9.00941L21.6923+23.5632L16.9177+23.5632L16.9177+17.7417L9.75594+17.7417L9.75594+23.5632L4.98141+23.5632ZM9.75594+14.8309L16.9177+14.8309L16.9177+9.00941L14.5305+9.00941L14.5305+6.09866L12.1432+6.09866L12.1432+9.00941L9.75594+9.00941L9.75594+14.8309Z" fill="none" stroke-linecap="butt" opacity="1" stroke-linejoin="miter"/>
<path stroke="#000000" stroke-width="0.623622" d="M8.44177+5.88725" fill="none" stroke-linecap="butt" opacity="1" stroke-linejoin="round"/>
</g>
</svg>
